<?xml version="1.0" standalone="no"?>
<!DOCTYPE svg PUBLIC "-//W3C//DTD SVG 20010904//EN"
 "http://www.w3.org/TR/2001/REC-SVG-20010904/DTD/svg10.dtd">
<svg version="1.0" xmlns="http://www.w3.org/2000/svg"
 width="1816.000000pt" height="1816.000000pt" viewBox="0 0 1816.000000 1816.000000"
 preserveAspectRatio="xMidYMid meet">
<metadata>
Created by potrace 1.11, written by Peter Selinger 2001-2013
</metadata>
<g transform="translate(0.000000,1816.000000) scale(0.100000,-0.100000)"
fill="#000000" stroke="none">
<path d="M11647 12864 c-1 -2 -25 -6 -52 -10 -137 -18 -376 -127 -585 -265
-172 -114 -235 -167 -429 -360 -75 -74 -170 -173 -211 -218 -41 -46 -84 -93
-95 -105 -17 -18 -76 -87 -140 -164 -11 -14 -25 -30 -30 -36 -6 -6 -44 -54
-85 -106 -41 -52 -77 -97 -80 -100 -3 -3 -28 -34 -55 -70 -27 -36 -53 -69 -57
-75 -16 -20 -108 -141 -133 -175 -15 -19 -55 -75 -91 -125 -35 -49 -68 -95
-73 -101 -16 -19 -275 -408 -287 -429 -12 -24 -67 -108 -74 -115 -3 -3 -11
-16 -19 -30 -33 -58 -212 -347 -226 -365 -8 -10 -15 -23 -15 -28 0 -5 -15 -32
-33 -60 -53 -85 -57 -91 -69 -117 -7 -14 -15 -27 -18 -30 -10 -9 -41 -65 -47
-82 -3 -10 -9 -18 -13 -18 -4 0 -10 -10 -14 -22 -11 -43 -49 -78 -91 -84 -76
-10 -242 -60 -325 -97 -65 -28 -174 -81 -180 -87 -3 -3 -25 -16 -50 -29 -25
-13 -55 -31 -66 -40 -12 -9 -32 -23 -44 -31 -115 -77 -323 -280 -466 -455 -55
-67 -147 -199 -219 -313 -63 -100 -118 -152 -305 -288 -107 -77 -118 -85 -175
-115 -22 -12 -42 -25 -45 -28 -5 -7 -80 -45 -90 -46 -3 0 -10 -4 -16 -7 -6 -4
-38 -14 -70 -21 -52 -12 -83 -13 -146 -8 -20 1 -47 37 -53 72 -7 33 12 144 37
214 21 62 161 352 223 465 65 117 118 205 128 211 5 3 7 8 5 11 -1 3 63 106
143 229 81 123 150 235 155 249 17 57 -12 135 -61 159 -28 15 -74 21 -80 12
-2 -5 -17 -11 -33 -14 -54 -11 -276 -170 -552 -396 -19 -16 -51 -42 -70 -57
-19 -16 -44 -37 -55 -47 -11 -10 -33 -28 -48 -40 -16 -12 -39 -31 -50 -43 -53
-49 -58 -47 -27 12 36 69 62 115 117 204 61 99 77 149 64 196 -18 64 -68 107
-137 117 -57 8 -97 -26 -134 -113 -27 -66 -140 -311 -181 -394 -16 -32 -29
-64 -29 -72 0 -8 -4 -14 -9 -14 -5 0 -11 -10 -15 -23 -3 -13 -13 -33 -23 -44
-10 -12 -38 -45 -63 -74 -47 -56 -226 -237 -295 -299 -132 -118 -428 -330
-461 -330 -8 0 -14 -4 -14 -9 0 -7 -74 -43 -90 -43 -3 0 -14 -5 -25 -11 -11
-6 -50 -16 -87 -22 -212 -37 -260 51 -171 315 14 41 30 81 36 88 5 6 7 12 4
12 -15 0 220 475 283 570 9 14 21 36 28 50 7 14 21 39 32 55 11 17 23 37 27
45 3 8 27 47 53 85 46 69 70 123 70 154 -1 24 -25 51 -50 56 -54 10 -197 -44
-258 -99 -27 -24 -132 -168 -132 -180 0 -2 -25 -42 -55 -88 -30 -45 -55 -89
-55 -95 0 -7 -4 -13 -8 -13 -5 0 -19 -21 -33 -46 -13 -25 -29 -53 -34 -62 -20
-34 -100 -178 -115 -207 -8 -17 -17 -32 -20 -35 -6 -5 -72 -140 -117 -238 -32
-70 -54 -132 -46 -132 3 0 1 -6 -5 -13 -11 -13 -26 -113 -23 -157 6 -110 93
-207 214 -239 85 -23 260 -19 330 8 15 6 27 9 27 6 0 -9 146 47 228 88 86 42
234 134 240 150 2 4 10 7 17 7 7 0 15 3 17 8 2 4 26 24 53 45 63 47 104 79
119 92 6 6 33 31 60 55 l50 45 -32 -45 c-17 -25 -54 -74 -81 -109 -29 -38 -55
-85 -63 -115 -14 -48 -13 -60 8 -156 3 -14 16 -44 30 -67 19 -33 32 -44 60
-49 47 -9 66 10 151 150 37 61 71 113 75 114 4 2 8 8 8 13 0 11 106 196 126
219 7 8 13 20 14 25 1 6 16 33 33 60 17 28 36 59 42 70 27 49 42 70 75 108 69
80 252 255 360 345 41 35 84 71 95 81 93 80 275 217 275 206 0 -12 -108 -229
-144 -287 -19 -32 -31 -58 -28 -58 4 0 2 -4 -4 -8 -6 -4 -24 -32 -41 -62 -43
-80 -57 -104 -63 -110 -3 -3 -11 -16 -17 -30 -7 -14 -33 -61 -58 -105 -25 -44
-67 -123 -93 -175 -26 -52 -49 -97 -52 -100 -12 -11 -61 -123 -79 -182 -69
-219 -24 -322 149 -346 192 -26 396 25 620 156 70 41 239 150 250 162 34 35
38 32 36 -29 -3 -70 20 -149 54 -186 88 -94 251 -72 437 57 129 91 315 271
487 473 25 29 24 27 -9 -58 -73 -187 -95 -268 -109 -397 -31 -275 67 -452 283
-510 48 -13 256 -13 256 0 0 1 8 3 18 5 51 10 139 43 190 72 33 18 63 33 68
33 5 0 9 3 9 8 0 4 15 15 33 25 33 18 43 26 141 110 83 71 175 168 252 264
l41 52 34 -37 c19 -21 50 -46 69 -58 31 -18 52 -26 110 -41 27 -7 174 -7 225
0 57 8 125 24 165 40 8 3 38 13 65 23 28 10 59 24 70 31 11 7 27 13 37 13 10
0 18 3 18 8 0 4 26 20 58 37 31 16 59 32 62 35 3 3 37 27 76 53 185 124 465
373 634 567 30 35 60 68 65 74 30 33 63 84 68 108 9 36 -7 74 -34 81 -24 6
-67 -33 -149 -133 -113 -140 -402 -419 -479 -464 -9 -5 -25 -18 -36 -29 -16
-15 -181 -126 -260 -175 -95 -58 -201 -92 -300 -97 -67 -4 -106 11 -131 50
-23 35 -14 146 19 245 25 76 90 239 110 275 6 11 12 22 12 25 2 14 161 327
172 338 7 7 13 17 13 21 0 11 86 160 158 273 32 51 62 106 66 122 9 35 -10 85
-33 88 -53 4 -71 2 -121 -16 -90 -32 -132 -60 -183 -122 -45 -56 -225 -337
-278 -434 -13 -25 -26 -47 -29 -50 -3 -3 -12 -18 -20 -35 -8 -16 -17 -32 -20
-35 -10 -10 -137 -259 -184 -360 -32 -70 -58 -148 -71 -211 -9 -46 -166 -241
-285 -355 -240 -229 -417 -308 -629 -282 -22 2 -91 76 -91 96 0 10 -3 22 -7
26 -10 9 -16 53 -16 101 1 52 12 156 18 165 3 4 7 25 11 46 3 22 12 59 21 84
8 25 15 53 16 63 1 9 4 17 7 17 4 0 7 6 7 13 0 12 42 124 69 184 8 17 14 34
14 38 0 3 11 31 25 61 14 30 25 57 25 60 0 3 13 33 28 67 16 34 41 91 57 127
32 71 252 506 308 610 20 36 49 90 65 120 16 30 38 71 48 90 11 19 21 37 24
40 3 3 12 19 20 35 8 17 17 32 20 35 3 3 14 23 25 45 11 22 23 42 26 45 3 3
31 50 63 105 68 119 79 138 86 145 3 3 16 25 29 50 14 25 55 94 93 153 37 60
68 113 68 118 0 5 5 9 10 9 6 0 10 5 10 11 0 6 14 30 30 54 17 24 30 48 30 53
0 6 3 12 8 14 4 2 38 53 77 113 96 152 461 702 496 746 16 20 29 40 29 44 0 6
48 74 60 85 4 3 16 21 28 41 12 20 35 53 52 75 17 21 40 52 53 69 12 16 44 56
72 90 27 33 57 68 65 78 98 120 309 324 445 430 33 26 65 52 72 57 7 6 17 10
23 10 5 0 10 3 10 8 0 6 12 15 96 62 27 16 165 69 179 70 3 0 6 0 8 1 22 7
152 21 207 21 87 1 143 -10 221 -43 107 -45 154 -30 175 56 9 37 40 95 63 116
49 46 51 132 4 169 -40 31 -123 51 -202 49 -39 -1 -72 -3 -74 -5z m-3103
-3531 c-66 -122 -211 -359 -239 -389 -21 -24 -41 -51 -70 -94 -16 -25 -32 -47
-35 -50 -3 -3 -17 -21 -32 -42 -15 -20 -34 -42 -41 -50 -7 -7 -23 -28 -36 -46
-13 -19 -33 -44 -45 -56 -11 -12 -43 -49 -71 -81 -78 -91 -222 -232 -335 -326
-26 -22 -101 -59 -119 -59 -11 0 -33 35 -26 42 3 2 7 22 11 44 3 21 10 47 15
56 5 9 8 21 8 25 -2 9 3 23 44 123 17 41 34 77 37 80 3 3 26 41 50 85 63 117
218 348 275 411 6 6 28 33 50 60 97 120 229 231 322 271 64 28 176 58 226 61
l47 2 -36 -67z"/>
<path d="M4610 11357 c-22 -11 -25 -19 -25 -66 -1 -56 1 -54 -74 -111 -18 -14
-38 -30 -44 -35 -7 -6 -28 -22 -47 -35 -19 -13 -37 -27 -40 -30 -3 -4 -88 -69
-190 -144 -102 -75 -192 -142 -200 -149 -8 -7 -114 -84 -235 -171 -121 -87
-237 -172 -257 -187 -20 -16 -42 -29 -47 -29 -6 0 -11 -4 -11 -8 0 -4 -15 -16
-32 -27 -18 -10 -35 -21 -38 -25 -3 -3 -41 -31 -85 -61 -100 -70 -237 -165
-250 -176 -6 -4 -51 -35 -100 -68 -50 -33 -92 -62 -95 -66 -3 -3 -23 -16 -45
-29 -22 -13 -43 -29 -47 -34 -9 -14 -16 7 -23 79 -4 33 -8 74 -10 90 -1 17 -5
53 -9 80 -3 28 -8 77 -12 110 -3 33 -7 78 -10 100 -2 22 -7 65 -10 95 -9 90
-13 125 -15 130 -1 3 -1 9 0 13 3 20 -40 199 -63 259 -26 69 -63 137 -94 173
-40 46 -127 101 -177 112 -5 1 -21 5 -35 9 -95 25 -262 24 -454 -2 -41 -5
-100 -19 -290 -69 -68 -17 -354 -135 -441 -182 -47 -25 -85 -65 -85 -89 0 -64
40 -84 108 -54 25 12 49 25 52 30 3 5 48 29 100 53 184 87 473 133 610 97 174
-45 238 -99 298 -250 21 -54 70 -238 77 -292 2 -15 8 -44 14 -65 9 -35 18 -78
27 -128 1 -11 5 -31 9 -45 5 -25 7 -35 26 -145 6 -33 12 -71 15 -85 2 -14 7
-41 9 -60 3 -19 10 -60 15 -90 19 -114 21 -140 10 -140 -6 0 -16 -5 -23 -10
-25 -22 -220 -150 -227 -150 -5 0 -10 -3 -12 -7 -4 -11 -127 -93 -137 -93 -5
0 -11 -4 -13 -8 -2 -4 -91 -68 -198 -142 -208 -143 -339 -234 -355 -248 -6 -5
-24 -17 -40 -28 -17 -10 -32 -21 -35 -25 -3 -3 -25 -18 -49 -34 -25 -15 -53
-36 -64 -46 -12 -10 -29 -21 -39 -25 -10 -3 -18 -10 -18 -15 0 -5 -6 -9 -14
-9 -8 0 -16 -4 -18 -8 -1 -4 -39 -32 -83 -62 -44 -30 -84 -59 -90 -63 -5 -4
-64 -46 -130 -94 -404 -289 -584 -444 -719 -618 -81 -105 -91 -122 -110 -183
-28 -96 -11 -172 59 -257 68 -84 73 -87 96 -80 37 12 48 29 59 96 13 73 13 75
28 111 16 39 112 192 123 196 5 2 9 8 9 14 0 34 281 332 445 472 44 38 91 78
105 90 14 12 54 44 89 71 36 28 74 58 85 68 12 10 28 24 36 31 21 17 259 197
290 218 14 10 52 38 85 63 33 25 68 48 78 51 9 4 17 10 17 14 0 4 28 25 63 48
34 22 100 67 147 100 223 158 590 401 593 394 4 -6 14 -60 22 -122 2 -14 6
-45 9 -70 4 -25 8 -61 11 -80 10 -83 15 -116 19 -138 3 -13 8 -51 11 -85 4
-34 9 -65 11 -68 2 -4 6 -31 8 -62 3 -30 7 -67 10 -83 13 -82 22 -146 31 -229
4 -32 9 -68 11 -80 57 -298 116 -452 205 -528 59 -51 154 -86 244 -89 93 -2
243 32 387 88 144 57 358 165 366 185 2 5 8 9 14 9 10 0 196 125 240 162 38
32 43 72 14 103 -13 14 -32 25 -43 25 -11 0 -61 -29 -112 -65 -223 -157 -393
-227 -532 -219 -68 4 -76 6 -121 28 -123 59 -231 247 -282 493 -8 38 -17 80
-20 93 -15 69 -38 178 -41 200 -2 14 -6 34 -9 45 -2 11 -12 65 -21 120 -24
135 -24 134 -30 180 -3 22 -7 51 -10 65 -3 14 -7 39 -9 55 -3 17 -12 73 -20
125 -9 52 -18 115 -22 140 -3 24 -8 48 -10 51 -2 4 38 34 89 68 50 33 97 64
103 69 5 5 21 15 34 22 13 7 29 17 34 21 6 5 61 41 121 80 61 39 122 79 137
90 15 10 29 19 32 19 3 0 31 17 63 39 84 55 173 112 398 252 110 68 202 127
203 131 2 5 8 8 13 8 6 0 37 18 70 40 33 22 65 40 70 40 5 0 9 5 9 10 0 6 4
10 9 10 5 0 59 32 120 70 62 39 116 70 120 70 5 0 11 3 13 8 3 8 281 176 341
206 94 47 115 136 58 250 -27 56 -90 135 -108 137 -5 0 -17 2 -28 4 -11 2 -32
-1 -45 -8z"/>
<path d="M16334 11348 c-19 -20 -24 -46 -14 -74 11 -29 -6 -46 -170 -170 -80
-60 -146 -112 -148 -116 -2 -5 -10 -8 -17 -8 -7 0 -15 -4 -17 -8 -1 -5 -48
-42 -103 -83 -55 -41 -105 -78 -112 -84 -7 -5 -19 -16 -27 -22 -8 -7 -18 -13
-21 -13 -4 0 -117 -83 -160 -118 -5 -4 -39 -28 -75 -52 -36 -25 -76 -55 -90
-67 -14 -13 -27 -23 -31 -23 -3 0 -30 -18 -60 -40 -30 -22 -63 -46 -74 -54
-23 -16 -182 -130 -205 -146 -26 -19 -244 -169 -264 -182 -10 -7 -31 -22 -45
-33 -14 -11 -34 -24 -43 -30 -26 -16 -141 -94 -162 -110 -11 -8 -21 -14 -22
-12 -3 2 -11 58 -20 137 -9 81 -11 98 -19 180 -4 41 -9 89 -11 105 -2 17 -6
59 -10 95 -3 36 -8 83 -11 105 -2 22 -6 56 -8 75 -2 19 -5 37 -6 40 -1 3 -1 8
-1 11 1 3 -5 29 -13 57 -7 29 -11 52 -9 52 2 0 -1 12 -7 28 -6 15 -12 34 -14
42 -5 26 -38 103 -60 142 -59 104 -164 174 -290 196 -53 9 -283 8 -365 -1
-118 -14 -383 -80 -425 -105 -5 -4 -14 -7 -20 -8 -27 -4 -201 -78 -207 -88 -4
-6 -8 -8 -8 -3 0 4 -13 1 -30 -8 -16 -8 -31 -14 -32 -13 -2 2 -17 -7 -35 -20
-17 -12 -36 -22 -41 -22 -21 0 -70 -51 -75 -77 -3 -15 1 -37 10 -50 22 -33 68
-30 129 9 207 132 527 204 730 162 181 -37 270 -127 324 -329 12 -44 25 -93
30 -110 5 -16 12 -46 15 -65 3 -19 13 -66 22 -104 19 -85 21 -98 38 -188 3
-16 7 -40 10 -55 3 -16 7 -41 10 -58 3 -16 7 -41 10 -55 3 -14 7 -38 9 -55 2
-16 6 -41 9 -55 6 -23 9 -43 23 -140 2 -19 7 -45 9 -57 4 -16 -2 -26 -25 -40
-16 -9 -30 -21 -30 -25 0 -4 -5 -8 -11 -8 -6 0 -25 -10 -42 -22 -17 -13 -40
-27 -50 -33 -18 -10 -333 -223 -352 -238 -5 -4 -62 -43 -125 -87 -63 -44 -120
-83 -126 -88 -6 -5 -28 -21 -50 -35 -21 -15 -60 -41 -85 -59 -25 -18 -113 -80
-195 -138 -82 -57 -153 -108 -159 -112 -5 -5 -71 -51 -145 -103 -207 -145
-241 -169 -256 -182 -7 -7 -15 -13 -18 -13 -4 0 -199 -145 -233 -175 -7 -5
-18 -14 -25 -20 -124 -96 -290 -261 -362 -360 -16 -22 -32 -42 -35 -45 -11 -9
-52 -89 -58 -112 -13 -57 -14 -131 -2 -161 16 -41 60 -107 103 -153 26 -29 37
-34 58 -29 28 7 47 42 53 97 6 50 11 69 34 118 79 170 303 440 526 634 17 15
39 34 50 44 11 10 43 36 70 57 28 22 52 43 55 46 6 7 203 164 245 197 127 96
180 138 183 144 2 5 8 8 13 8 5 0 31 17 58 38 26 20 57 43 67 50 84 56 210
147 212 154 2 4 8 8 13 8 8 0 107 67 119 80 3 3 23 17 45 30 22 13 42 26 45
29 3 4 59 42 125 86 66 44 122 82 125 86 8 8 161 109 167 109 2 0 11 7 20 16
9 8 19 12 23 7 4 -4 12 -51 19 -103 14 -106 20 -153 26 -190 9 -61 27 -198 30
-225 1 -16 5 -41 8 -55 4 -14 9 -52 13 -85 3 -33 8 -71 10 -85 2 -14 6 -43 9
-65 22 -175 36 -256 57 -350 11 -49 25 -94 29 -99 5 -6 9 -20 9 -33 0 -13 4
-31 9 -41 5 -9 19 -42 31 -74 40 -104 131 -186 240 -214 68 -17 69 -17 165
-11 110 8 253 48 400 112 28 12 53 23 57 24 7 2 115 60 179 95 19 10 75 46
124 79 50 34 107 72 128 86 20 13 37 28 37 33 0 4 7 8 15 8 37 0 47 78 13 110
-39 36 -50 31 -231 -104 -31 -23 -261 -136 -287 -141 -14 -3 -44 -9 -68 -14
-118 -24 -233 11 -313 96 -38 41 -148 233 -133 233 4 0 1 7 -6 15 -7 8 -10 15
-6 15 4 0 0 13 -8 29 -9 16 -13 31 -10 34 3 3 2 12 -2 19 -5 7 -10 20 -12 28
-8 42 -13 62 -32 150 -27 125 -28 131 -46 230 -9 47 -18 96 -21 110 -3 14 -6
34 -8 45 -2 11 -8 52 -14 90 -6 39 -13 79 -15 90 -2 11 -7 43 -10 70 -4 28 -9
57 -11 65 -3 9 -7 34 -9 55 -3 22 -7 51 -10 65 -3 14 -8 47 -10 74 -3 26 -8
57 -11 67 -5 16 25 39 172 136 98 65 183 120 188 123 6 3 44 27 85 54 111 73
340 218 500 318 25 15 50 32 56 37 6 5 29 19 50 31 21 11 65 38 96 58 57 37
557 348 589 367 10 6 55 32 101 60 46 27 99 58 120 70 20 11 51 33 70 48 32
27 33 31 32 95 0 83 -29 147 -95 213 -37 38 -52 47 -78 45 -18 0 -39 -8 -47
-18z"/>
<path d="M5396 10642 c-2 -1 -14 -5 -27 -7 -143 -28 -266 -262 -194 -371 55
-84 206 -62 303 44 54 60 83 123 89 192 5 67 -19 112 -72 134 -30 13 -90 18
-99 8z"/>
<path d="M10492 10630 c-76 -25 -128 -74 -169 -158 -30 -64 -40 -149 -23 -189
41 -92 180 -93 285 -1 42 37 94 111 99 140 1 7 4 18 7 23 3 6 7 35 8 65 4 113
-80 161 -207 120z"/>
<path d="M16478 9528 c-14 -13 -40 -50 -59 -83 -19 -33 -44 -78 -57 -100 -12
-22 -28 -51 -35 -65 -6 -14 -14 -27 -17 -30 -22 -19 -333 -604 -393 -740 -123
-277 -136 -436 -44 -530 47 -47 97 -64 184 -62 67 2 171 32 214 63 15 10 30
19 34 19 11 0 56 37 117 97 l57 56 -5 -44 c-4 -24 -6 -78 -7 -119 0 -88 25
-151 82 -206 57 -57 112 -76 214 -75 48 0 91 2 95 5 4 2 25 7 46 10 110 18
257 91 436 219 47 34 87 63 90 66 3 4 39 35 80 71 71 62 251 239 315 312 60
67 182 214 210 253 17 22 32 42 36 45 23 21 89 127 89 144 0 48 -55 86 -94 64
-8 -5 -30 -30 -47 -56 -18 -26 -37 -52 -43 -57 -6 -6 -39 -47 -74 -93 -35 -45
-75 -95 -90 -111 -15 -15 -50 -54 -79 -87 -94 -108 -273 -282 -368 -359 -21
-16 -43 -35 -49 -41 -24 -23 -193 -134 -204 -134 -7 0 -12 -4 -12 -8 0 -5 -26
-20 -57 -35 -160 -74 -258 -75 -288 -3 -25 58 -10 222 31 346 35 106 159 355
194 390 3 3 23 32 45 65 32 48 147 206 183 250 29 37 96 142 108 170 31 74 11
213 -41 280 -70 92 -123 76 -202 -60 -28 -49 -55 -94 -60 -100 -10 -11 -120
-204 -143 -250 -8 -17 -17 -32 -20 -35 -3 -3 -11 -16 -17 -30 -7 -14 -30 -56
-53 -95 -22 -38 -46 -81 -52 -95 -7 -14 -16 -28 -21 -31 -5 -3 -9 -13 -11 -21
-1 -9 -7 -22 -12 -29 -6 -8 -25 -39 -41 -70 -27 -49 -75 -127 -96 -154 -50
-66 -110 -139 -144 -176 -23 -24 -52 -55 -65 -69 -61 -65 -167 -119 -197 -100
-18 10 -20 75 -6 135 11 47 76 212 96 245 5 8 14 26 19 40 12 28 69 140 110
215 15 28 42 76 59 108 48 89 223 372 233 375 4 2 8 10 8 18 0 8 5 14 10 14 6
0 10 7 10 15 0 8 3 15 8 15 8 0 27 42 36 81 4 20 -4 39 -35 82 -68 96 -158
132 -211 85z"/>
<path d="M2109 6558 c-63 -24 -99 -83 -95 -160 5 -106 83 -218 210 -302 78
-51 232 -128 326 -161 87 -31 248 -85 270 -90 8 -2 69 -20 135 -39 66 -19 131
-37 145 -40 14 -3 63 -15 110 -26 80 -20 153 -36 210 -46 32 -5 92 -17 105
-19 22 -5 92 -16 130 -21 22 -2 63 -9 90 -14 49 -9 101 -17 161 -25 17 -3 74
-11 125 -19 52 -9 119 -18 149 -22 90 -10 103 -12 140 -18 19 -3 62 -8 95 -11
33 -4 75 -8 93 -11 18 -2 56 -6 85 -9 28 -3 63 -8 77 -10 14 -2 54 -7 90 -10
36 -2 81 -7 100 -9 41 -6 144 -16 215 -21 28 -3 68 -6 90 -9 66 -7 177 -18
220 -21 22 -2 40 -4 40 -5 0 0 32 -3 70 -5 39 -2 97 -6 130 -9 70 -7 187 -16
265 -21 30 -2 93 -6 140 -9 47 -3 121 -8 165 -11 44 -3 112 -8 150 -10 92 -7
242 -15 335 -20 41 -2 125 -6 185 -9 249 -15 784 -34 1127 -40 114 -3 212 -7
217 -10 5 -4 12 -2 15 3 3 5 21 6 38 2 38 -8 1420 -6 1673 3 269 9 453 16 550
21 50 2 146 7 215 10 69 3 157 8 195 10 39 3 111 7 160 10 50 3 115 7 145 9
136 10 228 17 265 20 22 2 76 7 120 11 44 3 98 8 120 10 173 16 245 23 310 31
22 2 63 7 91 9 28 3 59 7 70 9 10 2 48 7 84 11 36 4 73 9 84 11 10 2 44 6 75
10 31 3 65 8 76 10 11 3 36 7 55 10 19 3 46 7 60 9 14 3 43 7 65 10 22 3 63
10 90 15 28 5 66 12 85 15 19 3 42 8 50 10 8 2 31 7 50 10 19 3 42 8 50 10 8
2 26 6 40 9 106 18 489 126 615 173 148 54 331 164 422 252 32 30 93 126 93
144 0 7 3 17 7 21 22 21 27 142 9 191 -43 110 -169 50 -192 -91 -3 -21 -12
-51 -20 -65 -34 -67 -184 -160 -359 -224 -44 -16 -82 -30 -85 -31 -3 0 -12 -3
-20 -6 -20 -8 -122 -40 -135 -42 -5 -1 -35 -10 -65 -19 -30 -9 -66 -18 -80
-21 -14 -3 -42 -10 -62 -15 -21 -5 -38 -7 -38 -5 0 3 -8 0 -18 -5 -11 -6 -41
-13 -68 -17 -27 -3 -51 -8 -54 -9 -3 -2 -26 -6 -50 -10 -25 -3 -67 -10 -95
-15 -71 -13 -125 -20 -255 -35 -36 -4 -72 -8 -80 -10 -8 -1 -42 -5 -75 -9 -33
-3 -87 -9 -120 -12 -33 -4 -76 -8 -95 -9 -19 -2 -69 -6 -110 -9 -41 -4 -102
-9 -135 -11 -33 -2 -103 -6 -155 -10 -52 -4 -120 -9 -150 -10 -30 -2 -55 -4
-55 -5 0 0 -47 -3 -105 -5 -58 -2 -150 -7 -205 -10 -250 -15 -720 -32 -1120
-40 -250 -5 -951 -8 -970 -5 -5 1 -14 1 -20 0 -40 -8 -1305 18 -1710 35 -66 3
-183 8 -260 11 -77 3 -178 7 -225 10 -47 2 -130 6 -185 9 -55 2 -143 7 -195
10 -52 3 -138 7 -190 10 -137 8 -247 15 -310 20 -30 2 -100 7 -155 10 -55 3
-120 7 -145 10 -25 2 -83 7 -130 10 -47 3 -110 7 -140 10 -30 2 -89 7 -130 10
-41 2 -101 7 -132 10 -32 3 -82 7 -112 10 -53 4 -158 14 -226 20 -19 2 -73 7
-120 10 -47 4 -98 9 -115 11 -16 2 -61 7 -100 9 -38 3 -81 8 -95 10 -14 2 -54
7 -90 10 -81 7 -92 9 -105 17 -6 4 -17 3 -25 -2 -8 -5 -21 -5 -29 -1 -9 4 -34
9 -57 10 -37 2 -79 8 -79 11 0 0 -27 3 -60 5 -33 3 -78 8 -100 11 -22 4 -53 8
-70 10 -16 1 -43 5 -60 7 -16 3 -66 10 -111 16 -44 6 -89 13 -100 15 -10 2
-41 7 -69 10 -76 11 -115 17 -139 22 -11 2 -36 7 -55 10 -18 3 -43 8 -55 10
-11 2 -37 7 -56 10 -56 10 -63 12 -110 23 -25 5 -56 12 -70 14 -14 3 -54 13
-90 22 -63 16 -77 20 -119 29 -126 28 -307 89 -379 128 -123 66 -242 180 -242
230 0 66 -74 111 -141 86z"/>
</g>
</svg>
